<svg xmlns="http://www.w3.org/2000/svg" width="1080" height="1350" viewBox="0 0 1080 1350" fill="none"><defs><linearGradient id="bg" x1="0" y1="0" x2="1" y2="1"><stop offset="0%" stop-color="#fff7ed"/><stop offset="50%" stop-color="#fdf2f8"/><stop offset="100%" stop-color="#eef2ff"/></linearGradient><radialGradient id="hq0" cx="50%" cy="50%" r="50%"><stop offset="0%" stop-color="#8b5cf6" stop-opacity="0.5"/><stop offset="60%" stop-color="#8b5cf6" stop-opacity="0.16"/><stop offset="100%" stop-color="#8b5cf6" stop-opacity="0"/></radialGradient><radialGradient id="hq1" cx="50%" cy="50%" r="50%"><stop offset="0%" stop-color="#0e7490" stop-opacity="0.5"/><stop offset="60%" stop-color="#0e7490" stop-opacity="0.16"/><stop offset="100%" stop-color="#0e7490" stop-opacity="0"/></radialGradient><radialGradient id="hq2" cx="50%" cy="50%" r="50%"><stop offset="0%" stop-color="#2563eb" stop-opacity="0.5"/><stop offset="60%" stop-color="#2563eb" stop-opacity="0.16"/><stop offset="100%" stop-color="#2563eb" stop-opacity="0"/></radialGradient></defs><rect width="1080" height="1350" fill="url(#bg)"/><g transform="translate(150 260) rotate(-12) scale(2.2)" opacity="0.05"><rect x="-40" y="-16" width="80" height="32" rx="16" fill="#475569"/><line x1="0" y1="-16" x2="0" y2="16" stroke="#fff" stroke-width="4"/></g><g transform="translate(170 780) rotate(8) scale(1.7)" opacity="0.05"><rect x="-40" y="-16" width="80" height="32" rx="16" fill="#475569"/><line x1="0" y1="-16" x2="0" y2="16" stroke="#fff" stroke-width="4"/></g><g transform="translate(900 580) rotate(14) scale(1.8)" opacity="0.05"><rect x="-40" y="-16" width="80" height="32" rx="16" fill="#475569"/><line x1="0" y1="-16" x2="0" y2="16" stroke="#fff" stroke-width="4"/></g><g transform="translate(180 1190) rotate(10) scale(1.6)" opacity="0.05"><rect x="-40" y="-16" width="80" height="32" rx="16" fill="#475569"/><line x1="0" y1="-16" x2="0" y2="16" stroke="#fff" stroke-width="4"/></g><text x="60" y="74" font-family="'Noto Sans TC','PingFang TC','Microsoft JhengHei',system-ui,sans-serif" font-size="34" font-weight="800" fill="#475569" text-anchor="start">藥師命運轉盤</text><text x="1020" y="74" font-family="'Noto Sans TC','PingFang TC','Microsoft JhengHei',system-ui,sans-serif" font-size="32" font-weight="700" fill="#94a3b8" text-anchor="end">4 / 6</text><text x="1020" y="1296" font-family="'Noto Sans TC','PingFang TC','Microsoft JhengHei',system-ui,sans-serif" font-size="34" font-weight="800" fill="#94a3b8" text-anchor="end">滑 →</text><g transform="translate(70 150)"><rect x="0" y="0" width="216" height="60" rx="30" fill="#475569"/><text x="108" y="41" font-family="'Noto Sans TC','PingFang TC','Microsoft JhengHei',system-ui,sans-serif" font-size="34" font-weight="800" fill="#fff" text-anchor="middle">右下象限</text></g><text x="540" y="300" font-family="'Noto Sans TC','PingFang TC','Microsoft JhengHei',system-ui,sans-serif" font-size="66" font-weight="800" fill="#1f2937" text-anchor="middle">高薪 × 拚一波</text><text x="540" y="372" font-family="'Noto Sans TC','PingFang TC','Microsoft JhengHei',system-ui,sans-serif" font-size="42" font-weight="700" fill="#475569" text-anchor="middle">把薪水衝上去，也拚出實力</text><circle cx="270" cy="660" r="128" fill="#8b5cf6" opacity="0.11"/><circle cx="267" cy="655" r="155" fill="url(#hq0)"/><g transform="translate(159.5 547.5) scale(2.15)">
  <path d="M30 60 Q50 53 70 60 L78 92 Q50 98 22 92 Z" fill="#FFFFFF" stroke="#D7DCE3" stroke-width="1.6"/>
  <path d="M50 56 L41 92 M50 56 L59 92" stroke="#D7DCE3" stroke-width="1.4" fill="none"/>
  <path d="M50 55 L44 67 L50 73 L56 67 Z" fill="#8b5cf6"/>
  <rect x="45" y="47" width="10" height="11" rx="3" fill="#F0BE92"/>
  <path d="M20 71 Q18 68 20 65 Q22 62 20 59.5" fill="none" stroke="#c4b5fd" stroke-opacity="0.55" stroke-width="1.4" stroke-linecap="round"/>
  <path d="M25 71 Q23 68 25 65 Q27 62 25 59.5" fill="none" stroke="#c4b5fd" stroke-opacity="0.55" stroke-width="1.4" stroke-linecap="round"/>
  <path d="M30 77 Q36 77.5 36 81.5 Q36 85.5 30 85" fill="none" stroke="#B9A98C" stroke-width="2.6"/>
  <rect x="15" y="73" width="15" height="15" rx="2.5" fill="#EFE9DD" stroke="#B9A98C" stroke-width="1.6"/>
  <rect x="15.8" y="79" width="13.4" height="3" fill="#c4b5fd" fill-opacity="0.85"/>
  <ellipse cx="22.5" cy="73.6" rx="6.4" ry="1.7" fill="#5C3D2E"/>
  <circle cx="33" cy="82" r="3.6" fill="#F8D2AC"/>
  <circle cx="50" cy="34" r="17" fill="#F8D2AC"/>
  <circle cx="33.5" cy="35" r="3.2" fill="#F0BE92"/>
  <circle cx="66.5" cy="35" r="3.2" fill="#F0BE92"/>
  <path d="M33 33 Q33 15 50 15 Q67 15 67 33 Q63 24 55 25 Q58 21 52 21 Q54 25 47 24 Q44 20 42 25 Q38 26 36 30 Q34 31 33 33 Z" fill="#2E2A24"/>
  <path d="M39 31.5 Q43 30.5 47 31.5" fill="none" stroke="#2E2A24" stroke-width="1.6" stroke-linecap="round"/>
  <path d="M53 31.5 Q57 30.5 61 31.5" fill="none" stroke="#2E2A24" stroke-width="1.6" stroke-linecap="round"/>
  <path d="M39.5 37 Q43 40 46.5 37" fill="none" stroke="#2B3440" stroke-width="1.8" stroke-linecap="round"/>
  <path d="M53.5 37 Q57 40 60.5 37" fill="none" stroke="#2B3440" stroke-width="1.8" stroke-linecap="round"/>
  <circle cx="39.5" cy="43.5" r="2.3" fill="#F4A8A0" fill-opacity="0.65"/>
  <circle cx="60.5" cy="43.5" r="2.3" fill="#F4A8A0" fill-opacity="0.65"/>
  <path d="M46 45.5 Q50 48.5 54 45.5" fill="none" stroke="#B06A4F" stroke-width="1.8" stroke-linecap="round"/>
  <path d="M23 18 H30 L23 26 H30" fill="none" stroke="#4F46E5" stroke-width="1.8" stroke-linecap="round" stroke-linejoin="round" transform="rotate(-12 24 26)"/>
  <path d="M16 14.5 H21.5 L16 20 H21.5" fill="none" stroke="#4F46E5" stroke-width="1.4" stroke-linecap="round" stroke-linejoin="round" transform="rotate(-12 18 20)"/>
</g><text x="270" y="850" font-family="'Noto Sans TC','PingFang TC','Microsoft JhengHei',system-ui,sans-serif" font-size="44" font-weight="800" fill="#8b5cf6" text-anchor="middle">夜貓藥師</text><text x="270" y="918" font-family="'Noto Sans TC','PingFang TC','Microsoft JhengHei',system-ui,sans-serif" font-size="36" font-weight="700" fill="#1f2937" text-anchor="middle">大夜換高薪</text><circle cx="540" cy="660" r="128" fill="#0e7490" opacity="0.11"/><circle cx="537" cy="655" r="155" fill="url(#hq1)"/><g transform="translate(429.5 547.5) scale(2.15)">
  <path d="M30 60 Q50 53 70 60 L78 92 Q50 98 22 92 Z" fill="#FFFFFF" stroke="#D7DCE3" stroke-width="1.6"/>
  <path d="M50 56 L41 92 M50 56 L59 92" stroke="#D7DCE3" stroke-width="1.4" fill="none"/>
  <path d="M50 55 L44 67 L50 73 L56 67 Z" fill="#0e7490"/>
  <rect x="45" y="47" width="10" height="11" rx="3" fill="#F0BE92"/>
  <circle cx="33.5" cy="35" r="3.2" fill="#F0BE92"/>
  <circle cx="66.5" cy="35" r="3.2" fill="#F0BE92"/>
  <circle cx="50" cy="34" r="17" fill="#F8D2AC"/>
  <path d="M33 33 Q33 15 50 15 Q67 15 67 33 Q62 24 53 24 L53 30 Q49 25 44 26 Q38 28 33 33 Z" fill="#3A2E22"/>
  <g stroke="#2B3440" stroke-width="1.8" fill="#FFFFFF" fill-opacity="0.3">
    <rect x="37.5" y="32.5" width="11" height="9" rx="2.5"/>
    <rect x="51.5" y="32.5" width="11" height="9" rx="2.5"/>
  </g>
  <line x1="48.5" y1="36.5" x2="51.5" y2="36.5" stroke="#2B3440" stroke-width="1.8"/>
  <circle cx="43" cy="37" r="1.7" fill="#2B3440"/>
  <circle cx="57" cy="37" r="1.7" fill="#2B3440"/>
  <line x1="38.5" y1="29" x2="47" y2="30.5" stroke="#3A2E22" stroke-width="1.8" stroke-linecap="round"/>
  <line x1="61.5" y1="29" x2="53" y2="30.5" stroke="#3A2E22" stroke-width="1.8" stroke-linecap="round"/>
  <line x1="46" y1="46" x2="54" y2="46" stroke="#B06A4F" stroke-width="1.8" stroke-linecap="round"/>
  <g transform="rotate(-9 26 76)">
    <rect x="15" y="63" width="22" height="27" rx="2" fill="#F4F1EA" stroke="#9AA1AB" stroke-opacity="0.55" stroke-width="1.6"/>
    <rect x="22" y="60" width="8" height="5" rx="1.5" fill="#9AA1AB" fill-opacity="0.85"/>
    <line x1="19" y1="71" x2="33" y2="71" stroke="#C2C7CF" stroke-width="1.4"/>
    <line x1="19" y1="76" x2="33" y2="76" stroke="#C2C7CF" stroke-width="1.4"/>
    <line x1="19" y1="81" x2="29" y2="81" stroke="#C2C7CF" stroke-width="1.4"/>
  </g>
  <circle cx="36" cy="83" r="4" fill="#F8D2AC"/>
</g><text x="540" y="850" font-family="'Noto Sans TC','PingFang TC','Microsoft JhengHei',system-ui,sans-serif" font-size="44" font-weight="800" fill="#0e7490" text-anchor="middle">學霸藥師</text><text x="540" y="918" font-family="'Noto Sans TC','PingFang TC','Microsoft JhengHei',system-ui,sans-serif" font-size="36" font-weight="700" fill="#1f2937" text-anchor="middle">資源拚成長</text><circle cx="810" cy="660" r="128" fill="#2563eb" opacity="0.11"/><circle cx="807" cy="655" r="155" fill="url(#hq2)"/><g transform="translate(699.5 547.5) scale(2.15)">
  <path d="M30 60 Q50 53 70 60 L78 92 Q50 98 22 92 Z" fill="#FFFFFF" stroke="#D7DCE3" stroke-width="1.6"/>
  <path d="M50 56 L41 92 M50 56 L59 92" stroke="#D7DCE3" stroke-width="1.4" fill="none"/>
  <path d="M50 55 L44 67 L50 73 L56 67 Z" fill="#2563eb"/>
  <rect x="45" y="47" width="10" height="11" rx="3" fill="#F0BE92"/>
  <circle cx="33.5" cy="35" r="3.2" fill="#F0BE92"/>
  <circle cx="66.5" cy="35" r="3.2" fill="#F0BE92"/>
  <circle cx="50" cy="34" r="17" fill="#F8D2AC"/>
  <path d="M33 33 Q33 15 50 15 Q67 15 67 33 Q63 25 55 24 Q57 20 51 19 Q52 24 46 24 Q39 25 33 33 Z" fill="#4A372A"/>
  <path d="M39 35 Q43 31 47 35" fill="none" stroke="#2B3440" stroke-width="1.8" stroke-linecap="round"/>
  <path d="M53 35 Q57 31 61 35" fill="none" stroke="#2B3440" stroke-width="1.8" stroke-linecap="round"/>
  <circle cx="40" cy="42" r="2.4" fill="#F4A8A0" fill-opacity="0.7"/>
  <circle cx="60" cy="42" r="2.4" fill="#F4A8A0" fill-opacity="0.7"/>
  <path d="M44 44 Q50 50 56 44" fill="none" stroke="#B06A4F" stroke-width="1.8" stroke-linecap="round"/>
  <g transform="rotate(-6 25 80)">
    <rect x="14" y="72" width="24" height="18" rx="2.5" fill="#B5703B" fill-opacity="0.55" stroke="#B5703B" stroke-opacity="0.85" stroke-width="1.6"/>
    <line x1="14" y1="80" x2="38" y2="80" stroke="#B5703B" stroke-opacity="0.85" stroke-width="1.4"/>
    <rect x="22" y="76" width="8" height="3" rx="1" fill="#B5703B" fill-opacity="0.85"/>
    <path d="M22 72 Q22 67 26 67 L26 67 Q30 67 30 72" fill="none" stroke="#B5703B" stroke-opacity="0.85" stroke-width="1.8"/>
  </g>
  <circle cx="26" cy="66" r="3.8" fill="#F8D2AC"/>
</g><text x="810" y="850" font-family="'Noto Sans TC','PingFang TC','Microsoft JhengHei',system-ui,sans-serif" font-size="44" font-weight="800" fill="#2563eb" text-anchor="middle">北漂藥師</text><text x="810" y="918" font-family="'Noto Sans TC','PingFang TC','Microsoft JhengHei',system-ui,sans-serif" font-size="36" font-weight="700" fill="#1f2937" text-anchor="middle">追高薪卡位</text></svg>