<svg xmlns="http://www.w3.org/2000/svg" width="1080" height="1350" viewBox="0 0 1080 1350" fill="none"><defs><linearGradient id="bg" x1="0" y1="0" x2="1" y2="1"><stop offset="0%" stop-color="#fff7ed"/><stop offset="50%" stop-color="#fdf2f8"/><stop offset="100%" stop-color="#eef2ff"/></linearGradient><radialGradient id="h3" cx="50%" cy="50%" r="50%"><stop offset="0%" stop-color="#059669" stop-opacity="0.5"/><stop offset="60%" stop-color="#059669" stop-opacity="0.16"/><stop offset="100%" stop-color="#059669" stop-opacity="0"/></radialGradient></defs><rect width="1080" height="1350" fill="url(#bg)"/><g transform="translate(150 260) rotate(-12) scale(2.2)" opacity="0.05"><rect x="-40" y="-16" width="80" height="32" rx="16" fill="#059669"/><line x1="0" y1="-16" x2="0" y2="16" stroke="#fff" stroke-width="4"/></g><g transform="translate(170 780) rotate(8) scale(1.7)" opacity="0.05"><rect x="-40" y="-16" width="80" height="32" rx="16" fill="#059669"/><line x1="0" y1="-16" x2="0" y2="16" stroke="#fff" stroke-width="4"/></g><g transform="translate(900 580) rotate(14) scale(1.8)" opacity="0.05"><rect x="-40" y="-16" width="80" height="32" rx="16" fill="#059669"/><line x1="0" y1="-16" x2="0" y2="16" stroke="#fff" stroke-width="4"/></g><g transform="translate(180 1190) rotate(10) scale(1.6)" opacity="0.05"><rect x="-40" y="-16" width="80" height="32" rx="16" fill="#059669"/><line x1="0" y1="-16" x2="0" y2="16" stroke="#fff" stroke-width="4"/></g><text x="60" y="74" font-family="'Noto Sans TC','PingFang TC','Microsoft JhengHei',system-ui,sans-serif" font-size="34" font-weight="800" fill="#059669" text-anchor="start">藥師命運轉盤</text><text x="1020" y="74" font-family="'Noto Sans TC','PingFang TC','Microsoft JhengHei',system-ui,sans-serif" font-size="32" font-weight="700" fill="#94a3b8" text-anchor="end">3 / 5</text><text x="1020" y="1296" font-family="'Noto Sans TC','PingFang TC','Microsoft JhengHei',system-ui,sans-serif" font-size="34" font-weight="800" fill="#34d399" text-anchor="end">滑 →</text><g transform="translate(70 150)"><rect x="0" y="0" width="256" height="60" rx="30" fill="#059669"/><text x="128" y="41" font-family="'Noto Sans TC','PingFang TC','Microsoft JhengHei',system-ui,sans-serif" font-size="34" font-weight="800" fill="#fff" text-anchor="middle">你該在意的</text></g><ellipse cx="300.0" cy="900.2" rx="124.2" ry="25.3" fill="#0f172a" opacity="0.07"/><circle cx="300" cy="730" r="285.2" fill="url(#h3)"/><g transform="translate(102.19999999999999 532.2) scale(3.9559999999999995)">
  <path d="M30 51 Q29 16 50 14 Q71 16 70 51 Q70 56 66 60 Q67 48 65 41 Q58 31 50 31 Q42 31 35 41 Q33 48 34 60 Q30 56 30 51 Z" fill="#3A2A1C"/>
  <path d="M30 60 Q50 53 70 60 L78 92 Q50 98 22 92 Z" fill="#FFFFFF" stroke="#D7DCE3" stroke-width="1.6"/>
  <path d="M50 56 L41 92 M50 56 L59 92" stroke="#D7DCE3" stroke-width="1.4" fill="none"/>
  <path d="M50 55 L44 67 L50 73 L56 67 Z" fill="#10b981"/>
  <rect x="45" y="47" width="10" height="11" rx="3" fill="#F0BE92"/>
  <rect x="18.5" y="70" width="11" height="4.5" rx="1.5" fill="#6ee7b7" fill-opacity="0.85"/>
  <rect x="17.5" y="74" width="13" height="14" rx="2" fill="#FFFFFF" stroke="#C7CDD6" stroke-width="1.6"/>
  <rect x="19" y="78" width="10" height="7" rx="1" fill="#6ee7b7" fill-opacity="0.55"/>
  <rect x="23.2" y="79.5" width="1.6" height="4" fill="#6ee7b7" fill-opacity="0.85"/>
  <rect x="21.8" y="80.7" width="4.4" height="1.6" fill="#6ee7b7" fill-opacity="0.85"/>
  <circle cx="31" cy="80" r="3.6" fill="#F8D2AC"/>
  <circle cx="50" cy="34" r="17" fill="#F8D2AC"/>
  <circle cx="33.5" cy="35" r="3.2" fill="#F0BE92"/>
  <circle cx="66.5" cy="35" r="3.2" fill="#F0BE92"/>
  <path d="M34 34 Q34 17 50 16 Q66 17 66 34 Q61 25 53 25 Q56 21 49 21 Q42 22 40 27 Q37 28 34 34 Z" fill="#3A2A1C"/>
  <path d="M32 51.5 C30.5 49 27.5 49.5 29 52 C27.5 54.5 30.5 55 32 52.5 Z" fill="#10b981" fill-opacity="0.85"/>
  <path d="M32 51.5 C33.5 49 36.5 49.5 35 52 C36.5 54.5 33.5 55 32 52.5 Z" fill="#10b981" fill-opacity="0.85"/>
  <path d="M31.5 53 Q30 55 31 56.5" stroke="#10b981" stroke-opacity="0.85" stroke-width="0.8" fill="none" stroke-linecap="round"/>
  <path d="M32.5 53 Q34 55 33 56.5" stroke="#10b981" stroke-opacity="0.85" stroke-width="0.8" fill="none" stroke-linecap="round"/>
  <circle cx="32" cy="52" r="0.75" fill="#10b981" fill-opacity="0.85"/>
  <path d="M68 51.5 C66.5 49 63.5 49.5 65 52 C63.5 54.5 66.5 55 68 52.5 Z" fill="#10b981" fill-opacity="0.85"/>
  <path d="M68 51.5 C69.5 49 72.5 49.5 71 52 C72.5 54.5 69.5 55 68 52.5 Z" fill="#10b981" fill-opacity="0.85"/>
  <path d="M67.5 53 Q66 55 67 56.5" stroke="#10b981" stroke-opacity="0.85" stroke-width="0.8" fill="none" stroke-linecap="round"/>
  <path d="M68.5 53 Q70 55 69 56.5" stroke="#10b981" stroke-opacity="0.85" stroke-width="0.8" fill="none" stroke-linecap="round"/>
  <circle cx="68" cy="52" r="0.75" fill="#10b981" fill-opacity="0.85"/>
  <path d="M39 31 Q43 29.8 47 31" fill="none" stroke="#3A2A1C" stroke-width="1.5" stroke-linecap="round"/>
  <path d="M53 31 Q57 29.8 61 31" fill="none" stroke="#3A2A1C" stroke-width="1.5" stroke-linecap="round"/>
  <path d="M39.5 37 Q43 35.3 46.5 37" fill="none" stroke="#2B3440" stroke-width="1.8" stroke-linecap="round"/>
  <path d="M53.5 37 Q57 35.3 60.5 37" fill="none" stroke="#2B3440" stroke-width="1.8" stroke-linecap="round"/>
  <circle cx="43" cy="39" r="2.1" fill="#2B3440"/>
  <circle cx="43.8" cy="38.3" r="0.7" fill="#FFFFFF"/>
  <circle cx="57" cy="39" r="2.1" fill="#2B3440"/>
  <circle cx="57.8" cy="38.3" r="0.7" fill="#FFFFFF"/>
  <path d="M46.8 36.9 L48 36.2 M53.2 36.9 L52 36.2" stroke="#2B3440" stroke-width="0.6" stroke-linecap="round"/>
  <circle cx="39.5" cy="43.5" r="2.3" fill="#F4A8A0" fill-opacity="0.65"/>
  <circle cx="60.5" cy="43.5" r="2.3" fill="#F4A8A0" fill-opacity="0.65"/>
  <path d="M46.5 45.5 Q50 47.8 53.5 45.5" fill="none" stroke="#B06A4F" stroke-width="1.8" stroke-linecap="round"/>
</g><rect x="540" y="440" width="470" height="150" rx="24" fill="#ffffff" stroke="#e5e7eb" stroke-width="2"/><circle cx="620" cy="515" r="40" fill="#ffffff" stroke="#059669" stroke-width="5"/><line x1="620" y1="515" x2="620" y2="490.2" stroke="#334155" stroke-width="5" stroke-linecap="round"/><line x1="620" y1="515" x2="630.0" y2="532.3" stroke="#334155" stroke-width="5" stroke-linecap="round"/><circle cx="620" cy="515" r="4" fill="#334155"/><text x="700" y="532" font-family="'Noto Sans TC','PingFang TC','Microsoft JhengHei',system-ui,sans-serif" font-size="46" font-weight="800" fill="#1f2937" text-anchor="start">免/少輪班</text><rect x="540" y="620" width="470" height="150" rx="24" fill="#ffffff" stroke="#e5e7eb" stroke-width="2"/><circle cx="620" cy="695" r="40" fill="#059669"/><circle cx="634" cy="689" r="34" fill="#ffffff"/><line x1="580" y1="735" x2="660" y2="655" stroke="#ef4444" stroke-width="8" stroke-linecap="round"/><text x="700" y="712" font-family="'Noto Sans TC','PingFang TC','Microsoft JhengHei',system-ui,sans-serif" font-size="46" font-weight="800" fill="#1f2937" text-anchor="start">有無「無大夜」</text><rect x="540" y="800" width="470" height="150" rx="24" fill="#ffffff" stroke="#e5e7eb" stroke-width="2"/><circle cx="620" cy="875" r="40" fill="#059669"/><path d="M 603.2 875.8 l 11.200000000000001 12.8 l 24 -24.8" fill="none" stroke="#ffffff" stroke-width="8" stroke-linecap="round" stroke-linejoin="round"/><text x="700" y="892" font-family="'Noto Sans TC','PingFang TC','Microsoft JhengHei',system-ui,sans-serif" font-size="46" font-weight="800" fill="#1f2937" text-anchor="start">工作單純穩定</text><g id="text-overlay"><text x="540" y="400" font-family="'Noto Sans TC','PingFang TC','Microsoft JhengHei',system-ui,sans-serif" font-size="42" font-weight="800" fill="#334155" text-anchor="start">面試前，先問這三件 👇</text></g></svg>