<svg xmlns="http://www.w3.org/2000/svg" width="1080" height="1350" viewBox="0 0 1080 1350" fill="none"><defs><linearGradient id="bg" x1="0" y1="0" x2="1" y2="1"><stop offset="0%" stop-color="#fff7ed"/><stop offset="50%" stop-color="#fdf2f8"/><stop offset="100%" stop-color="#eef2ff"/></linearGradient><radialGradient id="h5" cx="50%" cy="50%" r="50%"><stop offset="0%" stop-color="#0e7490" stop-opacity="0.5"/><stop offset="60%" stop-color="#0e7490" stop-opacity="0.16"/><stop offset="100%" stop-color="#0e7490" stop-opacity="0"/></radialGradient></defs><rect width="1080" height="1350" fill="url(#bg)"/><g transform="translate(150 260) rotate(-12) scale(2.2)" opacity="0.05"><rect x="-40" y="-16" width="80" height="32" rx="16" fill="#0e7490"/><line x1="0" y1="-16" x2="0" y2="16" stroke="#fff" stroke-width="4"/></g><g transform="translate(170 780) rotate(8) scale(1.7)" opacity="0.05"><rect x="-40" y="-16" width="80" height="32" rx="16" fill="#0e7490"/><line x1="0" y1="-16" x2="0" y2="16" stroke="#fff" stroke-width="4"/></g><g transform="translate(900 580) rotate(14) scale(1.8)" opacity="0.05"><rect x="-40" y="-16" width="80" height="32" rx="16" fill="#0e7490"/><line x1="0" y1="-16" x2="0" y2="16" stroke="#fff" stroke-width="4"/></g><g transform="translate(180 1190) rotate(10) scale(1.6)" opacity="0.05"><rect x="-40" y="-16" width="80" height="32" rx="16" fill="#0e7490"/><line x1="0" y1="-16" x2="0" y2="16" stroke="#fff" stroke-width="4"/></g><text x="60" y="74" font-family="'Noto Sans TC','PingFang TC','Microsoft JhengHei',system-ui,sans-serif" font-size="34" font-weight="800" fill="#0e7490" text-anchor="start">藥師命運轉盤</text><text x="1020" y="74" font-family="'Noto Sans TC','PingFang TC','Microsoft JhengHei',system-ui,sans-serif" font-size="32" font-weight="700" fill="#94a3b8" text-anchor="end">5 / 5</text><ellipse cx="540.0" cy="625.0" rx="135.0" ry="27.5" fill="#0f172a" opacity="0.07"/><circle cx="540" cy="440" r="310" fill="url(#h5)"/><g transform="translate(325 225) scale(4.3)">
  <path d="M30 60 Q50 53 70 60 L78 92 Q50 98 22 92 Z" fill="#FFFFFF" stroke="#D7DCE3" stroke-width="1.6"/>
  <path d="M50 56 L41 92 M50 56 L59 92" stroke="#D7DCE3" stroke-width="1.4" fill="none"/>
  <path d="M50 55 L44 67 L50 73 L56 67 Z" fill="#0e7490"/>
  <rect x="45" y="47" width="10" height="11" rx="3" fill="#F0BE92"/>
  <circle cx="33.5" cy="35" r="3.2" fill="#F0BE92"/>
  <circle cx="66.5" cy="35" r="3.2" fill="#F0BE92"/>
  <circle cx="50" cy="34" r="17" fill="#F8D2AC"/>
  <path d="M33 33 Q33 15 50 15 Q67 15 67 33 Q62 24 53 24 L53 30 Q49 25 44 26 Q38 28 33 33 Z" fill="#3A2E22"/>
  <g stroke="#2B3440" stroke-width="1.8" fill="#FFFFFF" fill-opacity="0.3">
    <rect x="37.5" y="32.5" width="11" height="9" rx="2.5"/>
    <rect x="51.5" y="32.5" width="11" height="9" rx="2.5"/>
  </g>
  <line x1="48.5" y1="36.5" x2="51.5" y2="36.5" stroke="#2B3440" stroke-width="1.8"/>
  <circle cx="43" cy="37" r="1.7" fill="#2B3440"/>
  <circle cx="57" cy="37" r="1.7" fill="#2B3440"/>
  <line x1="38.5" y1="29" x2="47" y2="30.5" stroke="#3A2E22" stroke-width="1.8" stroke-linecap="round"/>
  <line x1="61.5" y1="29" x2="53" y2="30.5" stroke="#3A2E22" stroke-width="1.8" stroke-linecap="round"/>
  <line x1="46" y1="46" x2="54" y2="46" stroke="#B06A4F" stroke-width="1.8" stroke-linecap="round"/>
  <g transform="rotate(-9 26 76)">
    <rect x="15" y="63" width="22" height="27" rx="2" fill="#F4F1EA" stroke="#9AA1AB" stroke-opacity="0.55" stroke-width="1.6"/>
    <rect x="22" y="60" width="8" height="5" rx="1.5" fill="#9AA1AB" fill-opacity="0.85"/>
    <line x1="19" y1="71" x2="33" y2="71" stroke="#C2C7CF" stroke-width="1.4"/>
    <line x1="19" y1="76" x2="33" y2="76" stroke="#C2C7CF" stroke-width="1.4"/>
    <line x1="19" y1="81" x2="29" y2="81" stroke="#C2C7CF" stroke-width="1.4"/>
  </g>
  <circle cx="36" cy="83" r="4" fill="#F8D2AC"/>
</g><g id="text-overlay"><text x="540" y="800" font-family="'Noto Sans TC','PingFang TC','Microsoft JhengHei',system-ui,sans-serif" font-size="50" font-weight="700" fill="#334155" text-anchor="middle">換你了 👇</text><rect x="165" y="900" width="750" height="140" rx="70" fill="#0e7490"/><text x="514" y="990" font-family="'Noto Sans TC','PingFang TC','Microsoft JhengHei',system-ui,sans-serif" font-size="54" font-weight="800" fill="#fff" text-anchor="middle">30 秒測出你的命運醫院</text><text x="845" y="990" font-family="'Noto Sans TC','PingFang TC','Microsoft JhengHei',system-ui,sans-serif" font-size="56" font-weight="800" fill="#fff" text-anchor="middle">→</text></g></svg>