<svg xmlns="http://www.w3.org/2000/svg" width="1080" height="1350" viewBox="0 0 1080 1350" fill="none"><defs><linearGradient id="bg" x1="0" y1="0" x2="1" y2="1"><stop offset="0%" stop-color="#fff7ed"/><stop offset="50%" stop-color="#fdf2f8"/><stop offset="100%" stop-color="#eef2ff"/></linearGradient><radialGradient id="h3" cx="50%" cy="50%" r="50%"><stop offset="0%" stop-color="#0e7490" stop-opacity="0.5"/><stop offset="60%" stop-color="#0e7490" stop-opacity="0.16"/><stop offset="100%" stop-color="#0e7490" stop-opacity="0"/></radialGradient></defs><rect width="1080" height="1350" fill="url(#bg)"/><g transform="translate(150 260) rotate(-12) scale(2.2)" opacity="0.05"><rect x="-40" y="-16" width="80" height="32" rx="16" fill="#0e7490"/><line x1="0" y1="-16" x2="0" y2="16" stroke="#fff" stroke-width="4"/></g><g transform="translate(170 780) rotate(8) scale(1.7)" opacity="0.05"><rect x="-40" y="-16" width="80" height="32" rx="16" fill="#0e7490"/><line x1="0" y1="-16" x2="0" y2="16" stroke="#fff" stroke-width="4"/></g><g transform="translate(900 580) rotate(14) scale(1.8)" opacity="0.05"><rect x="-40" y="-16" width="80" height="32" rx="16" fill="#0e7490"/><line x1="0" y1="-16" x2="0" y2="16" stroke="#fff" stroke-width="4"/></g><g transform="translate(180 1190) rotate(10) scale(1.6)" opacity="0.05"><rect x="-40" y="-16" width="80" height="32" rx="16" fill="#0e7490"/><line x1="0" y1="-16" x2="0" y2="16" stroke="#fff" stroke-width="4"/></g><text x="60" y="74" font-family="'Noto Sans TC','PingFang TC','Microsoft JhengHei',system-ui,sans-serif" font-size="34" font-weight="800" fill="#0e7490" text-anchor="start">藥師命運轉盤</text><text x="1020" y="74" font-family="'Noto Sans TC','PingFang TC','Microsoft JhengHei',system-ui,sans-serif" font-size="32" font-weight="700" fill="#94a3b8" text-anchor="end">3 / 5</text><text x="1020" y="1296" font-family="'Noto Sans TC','PingFang TC','Microsoft JhengHei',system-ui,sans-serif" font-size="34" font-weight="800" fill="#22d3ee" text-anchor="end">滑 →</text><g transform="translate(70 150)"><rect x="0" y="0" width="256" height="60" rx="30" fill="#0e7490"/><text x="128" y="41" font-family="'Noto Sans TC','PingFang TC','Microsoft JhengHei',system-ui,sans-serif" font-size="34" font-weight="800" fill="#fff" text-anchor="middle">你該在意的</text></g><ellipse cx="300.0" cy="900.2" rx="124.2" ry="25.3" fill="#0f172a" opacity="0.07"/><circle cx="300" cy="730" r="285.2" fill="url(#h3)"/><g transform="translate(102.19999999999999 532.2) scale(3.9559999999999995)">
  <path d="M30 60 Q50 53 70 60 L78 92 Q50 98 22 92 Z" fill="#FFFFFF" stroke="#D7DCE3" stroke-width="1.6"/>
  <path d="M50 56 L41 92 M50 56 L59 92" stroke="#D7DCE3" stroke-width="1.4" fill="none"/>
  <path d="M50 55 L44 67 L50 73 L56 67 Z" fill="#0e7490"/>
  <rect x="45" y="47" width="10" height="11" rx="3" fill="#F0BE92"/>
  <circle cx="33.5" cy="35" r="3.2" fill="#F0BE92"/>
  <circle cx="66.5" cy="35" r="3.2" fill="#F0BE92"/>
  <circle cx="50" cy="34" r="17" fill="#F8D2AC"/>
  <path d="M33 33 Q33 15 50 15 Q67 15 67 33 Q62 24 53 24 L53 30 Q49 25 44 26 Q38 28 33 33 Z" fill="#3A2E22"/>
  <g stroke="#2B3440" stroke-width="1.8" fill="#FFFFFF" fill-opacity="0.3">
    <rect x="37.5" y="32.5" width="11" height="9" rx="2.5"/>
    <rect x="51.5" y="32.5" width="11" height="9" rx="2.5"/>
  </g>
  <line x1="48.5" y1="36.5" x2="51.5" y2="36.5" stroke="#2B3440" stroke-width="1.8"/>
  <circle cx="43" cy="37" r="1.7" fill="#2B3440"/>
  <circle cx="57" cy="37" r="1.7" fill="#2B3440"/>
  <line x1="38.5" y1="29" x2="47" y2="30.5" stroke="#3A2E22" stroke-width="1.8" stroke-linecap="round"/>
  <line x1="61.5" y1="29" x2="53" y2="30.5" stroke="#3A2E22" stroke-width="1.8" stroke-linecap="round"/>
  <line x1="46" y1="46" x2="54" y2="46" stroke="#B06A4F" stroke-width="1.8" stroke-linecap="round"/>
  <g transform="rotate(-9 26 76)">
    <rect x="15" y="63" width="22" height="27" rx="2" fill="#F4F1EA" stroke="#9AA1AB" stroke-opacity="0.55" stroke-width="1.6"/>
    <rect x="22" y="60" width="8" height="5" rx="1.5" fill="#9AA1AB" fill-opacity="0.85"/>
    <line x1="19" y1="71" x2="33" y2="71" stroke="#C2C7CF" stroke-width="1.4"/>
    <line x1="19" y1="76" x2="33" y2="76" stroke="#C2C7CF" stroke-width="1.4"/>
    <line x1="19" y1="81" x2="29" y2="81" stroke="#C2C7CF" stroke-width="1.4"/>
  </g>
  <circle cx="36" cy="83" r="4" fill="#F8D2AC"/>
</g><rect x="540" y="440" width="470" height="150" rx="24" fill="#ffffff" stroke="#e5e7eb" stroke-width="2"/><path d="M615 494.2 L645.0 507.8 L615 521.4 L585.0 507.8 Z" fill="#0e7490"/><path d="M599.0 511.8 V535.0 Q615 543.8 631.0 535.0 V511.8" fill="#0e7490" fill-opacity="0.55"/><line x1="645.0" y1="507.8" x2="645.0" y2="535.0" stroke="#0e7490" stroke-width="3"/><circle cx="645.0" cy="537.4" r="4" fill="#f59e0b"/><text x="686" y="530" font-family="'Noto Sans TC','PingFang TC','Microsoft JhengHei',system-ui,sans-serif" font-size="34" font-weight="800" fill="#1f2937" text-anchor="start">PGY 訓練</text><rect x="540" y="620" width="470" height="150" rx="24" fill="#ffffff" stroke="#e5e7eb" stroke-width="2"/><rect x="586.2" y="700.2" width="14.8" height="16.8" rx="2" fill="#0e7490" fill-opacity="0.45"/><rect x="603.0" y="683.4" width="14.8" height="33.6" rx="2" fill="#0e7490" fill-opacity="0.67"/><rect x="619.8" y="666.6" width="14.8" height="50.4" rx="2" fill="#0e7490" fill-opacity="0.89"/><text x="686" y="710" font-family="'Noto Sans TC','PingFang TC','Microsoft JhengHei',system-ui,sans-serif" font-size="34" font-weight="800" fill="#1f2937" text-anchor="start">專科藥師・進階制度</text><rect x="540" y="800" width="470" height="150" rx="24" fill="#ffffff" stroke="#e5e7eb" stroke-width="2"/><path d="M615 848.6 Q578.2 844.6 578.2 864.4 V901.4 Q578.2 889.5 615 893.5 Z" fill="#0e7490" fill-opacity="0.85"/><path d="M615 848.6 Q651.8 844.6 651.8 864.4 V901.4 Q651.8 889.5 615 893.5 Z" fill="#0e7490"/><line x1="615" y1="853.6" x2="615" y2="890.8" stroke="#ffffff" stroke-width="2"/><text x="686" y="890" font-family="'Noto Sans TC','PingFang TC','Microsoft JhengHei',system-ui,sans-serif" font-size="34" font-weight="800" fill="#1f2937" text-anchor="start">教學研究資源</text><g id="text-overlay"><text x="540" y="400" font-family="'Noto Sans TC','PingFang TC','Microsoft JhengHei',system-ui,sans-serif" font-size="42" font-weight="800" fill="#334155" text-anchor="start">面試前，先問這三件 👇</text></g></svg>