<svg xmlns="http://www.w3.org/2000/svg" width="1080" height="1350" viewBox="0 0 1080 1350" fill="none"><defs><linearGradient id="bg" x1="0" y1="0" x2="1" y2="1"><stop offset="0%" stop-color="#fff7ed"/><stop offset="50%" stop-color="#fdf2f8"/><stop offset="100%" stop-color="#eef2ff"/></linearGradient><radialGradient id="h2" cx="50%" cy="50%" r="50%"><stop offset="0%" stop-color="#2563eb" stop-opacity="0.5"/><stop offset="60%" stop-color="#2563eb" stop-opacity="0.16"/><stop offset="100%" stop-color="#2563eb" stop-opacity="0"/></radialGradient><clipPath id="cp"><rect x="90" y="360" width="900" height="380" rx="28"/></clipPath><linearGradient id="dusk" x1="0" y1="0" x2="0" y2="1"><stop offset="0%" stop-color="#c7dbf5"/><stop offset="100%" stop-color="#e8eff9"/></linearGradient></defs><rect width="1080" height="1350" fill="url(#bg)"/><g transform="translate(150 260) rotate(-12) scale(2.2)" opacity="0.05"><rect x="-40" y="-16" width="80" height="32" rx="16" fill="#2563eb"/><line x1="0" y1="-16" x2="0" y2="16" stroke="#fff" stroke-width="4"/></g><g transform="translate(170 780) rotate(8) scale(1.7)" opacity="0.05"><rect x="-40" y="-16" width="80" height="32" rx="16" fill="#2563eb"/><line x1="0" y1="-16" x2="0" y2="16" stroke="#fff" stroke-width="4"/></g><g transform="translate(900 580) rotate(14) scale(1.8)" opacity="0.05"><rect x="-40" y="-16" width="80" height="32" rx="16" fill="#2563eb"/><line x1="0" y1="-16" x2="0" y2="16" stroke="#fff" stroke-width="4"/></g><g transform="translate(180 1190) rotate(10) scale(1.6)" opacity="0.05"><rect x="-40" y="-16" width="80" height="32" rx="16" fill="#2563eb"/><line x1="0" y1="-16" x2="0" y2="16" stroke="#fff" stroke-width="4"/></g><text x="60" y="74" font-family="'Noto Sans TC','PingFang TC','Microsoft JhengHei',system-ui,sans-serif" font-size="34" font-weight="800" fill="#2563eb" text-anchor="start">藥師命運轉盤</text><text x="1020" y="74" font-family="'Noto Sans TC','PingFang TC','Microsoft JhengHei',system-ui,sans-serif" font-size="32" font-weight="700" fill="#94a3b8" text-anchor="end">2 / 5</text><text x="1020" y="1296" font-family="'Noto Sans TC','PingFang TC','Microsoft JhengHei',system-ui,sans-serif" font-size="34" font-weight="800" fill="#60a5fa" text-anchor="end">滑 →</text><g clip-path="url(#cp)"><rect x="90" y="360" width="900" height="380" fill="url(#dusk)"/><circle cx="860" cy="440" r="30" fill="#fde68a" fill-opacity="0.85"/><rect x="150" y="540" width="74" height="150" fill="#5a8fe6"/><rect x="164" y="556" width="14" height="18" fill="#fde68a" fill-opacity="0.75"/><rect x="194" y="556" width="14" height="18" fill="#fde68a" fill-opacity="0.5"/><rect x="164" y="590" width="14" height="18" fill="#fde68a" fill-opacity="0.75"/><rect x="194" y="590" width="14" height="18" fill="#fde68a" fill-opacity="0.5"/><rect x="164" y="624" width="14" height="18" fill="#fde68a" fill-opacity="0.75"/><rect x="194" y="624" width="14" height="18" fill="#fde68a" fill-opacity="0.5"/><rect x="164" y="658" width="14" height="18" fill="#fde68a" fill-opacity="0.75"/><rect x="194" y="658" width="14" height="18" fill="#fde68a" fill-opacity="0.5"/><rect x="240" y="470" width="74" height="220" fill="#3f74d6"/><rect x="254" y="486" width="14" height="18" fill="#fde68a" fill-opacity="0.75"/><rect x="284" y="486" width="14" height="18" fill="#fde68a" fill-opacity="0.5"/><rect x="254" y="520" width="14" height="18" fill="#fde68a" fill-opacity="0.75"/><rect x="284" y="520" width="14" height="18" fill="#fde68a" fill-opacity="0.5"/><rect x="254" y="554" width="14" height="18" fill="#fde68a" fill-opacity="0.75"/><rect x="284" y="554" width="14" height="18" fill="#fde68a" fill-opacity="0.5"/><rect x="254" y="588" width="14" height="18" fill="#fde68a" fill-opacity="0.75"/><rect x="284" y="588" width="14" height="18" fill="#fde68a" fill-opacity="0.5"/><rect x="254" y="622" width="14" height="18" fill="#fde68a" fill-opacity="0.75"/><rect x="284" y="622" width="14" height="18" fill="#fde68a" fill-opacity="0.5"/><rect x="254" y="656" width="14" height="18" fill="#fde68a" fill-opacity="0.75"/><rect x="284" y="656" width="14" height="18" fill="#fde68a" fill-opacity="0.5"/><rect x="335" y="570" width="74" height="120" fill="#5a8fe6"/><rect x="349" y="586" width="14" height="18" fill="#fde68a" fill-opacity="0.75"/><rect x="379" y="586" width="14" height="18" fill="#fde68a" fill-opacity="0.5"/><rect x="349" y="620" width="14" height="18" fill="#fde68a" fill-opacity="0.75"/><rect x="379" y="620" width="14" height="18" fill="#fde68a" fill-opacity="0.5"/><rect x="349" y="654" width="14" height="18" fill="#fde68a" fill-opacity="0.75"/><rect x="379" y="654" width="14" height="18" fill="#fde68a" fill-opacity="0.5"/><rect x="420" y="430" width="74" height="260" fill="#3f74d6"/><rect x="434" y="446" width="14" height="18" fill="#fde68a" fill-opacity="0.75"/><rect x="464" y="446" width="14" height="18" fill="#fde68a" fill-opacity="0.5"/><rect x="434" y="480" width="14" height="18" fill="#fde68a" fill-opacity="0.75"/><rect x="464" y="480" width="14" height="18" fill="#fde68a" fill-opacity="0.5"/><rect x="434" y="514" width="14" height="18" fill="#fde68a" fill-opacity="0.75"/><rect x="464" y="514" width="14" height="18" fill="#fde68a" fill-opacity="0.5"/><rect x="434" y="548" width="14" height="18" fill="#fde68a" fill-opacity="0.75"/><rect x="464" y="548" width="14" height="18" fill="#fde68a" fill-opacity="0.5"/><rect x="434" y="582" width="14" height="18" fill="#fde68a" fill-opacity="0.75"/><rect x="464" y="582" width="14" height="18" fill="#fde68a" fill-opacity="0.5"/><rect x="434" y="616" width="14" height="18" fill="#fde68a" fill-opacity="0.75"/><rect x="464" y="616" width="14" height="18" fill="#fde68a" fill-opacity="0.5"/><rect x="434" y="650" width="14" height="18" fill="#fde68a" fill-opacity="0.75"/><rect x="464" y="650" width="14" height="18" fill="#fde68a" fill-opacity="0.5"/><rect x="520" y="510" width="74" height="180" fill="#5a8fe6"/><rect x="534" y="526" width="14" height="18" fill="#fde68a" fill-opacity="0.75"/><rect x="564" y="526" width="14" height="18" fill="#fde68a" fill-opacity="0.5"/><rect x="534" y="560" width="14" height="18" fill="#fde68a" fill-opacity="0.75"/><rect x="564" y="560" width="14" height="18" fill="#fde68a" fill-opacity="0.5"/><rect x="534" y="594" width="14" height="18" fill="#fde68a" fill-opacity="0.75"/><rect x="564" y="594" width="14" height="18" fill="#fde68a" fill-opacity="0.5"/><rect x="534" y="628" width="14" height="18" fill="#fde68a" fill-opacity="0.75"/><rect x="564" y="628" width="14" height="18" fill="#fde68a" fill-opacity="0.5"/><rect x="534" y="662" width="14" height="18" fill="#fde68a" fill-opacity="0.75"/><rect x="564" y="662" width="14" height="18" fill="#fde68a" fill-opacity="0.5"/><rect x="620" y="400" width="74" height="290" fill="#3f74d6"/><rect x="634" y="416" width="14" height="18" fill="#fde68a" fill-opacity="0.75"/><rect x="664" y="416" width="14" height="18" fill="#fde68a" fill-opacity="0.5"/><rect x="634" y="450" width="14" height="18" fill="#fde68a" fill-opacity="0.75"/><rect x="664" y="450" width="14" height="18" fill="#fde68a" fill-opacity="0.5"/><rect x="634" y="484" width="14" height="18" fill="#fde68a" fill-opacity="0.75"/><rect x="664" y="484" width="14" height="18" fill="#fde68a" fill-opacity="0.5"/><rect x="634" y="518" width="14" height="18" fill="#fde68a" fill-opacity="0.75"/><rect x="664" y="518" width="14" height="18" fill="#fde68a" fill-opacity="0.5"/><rect x="634" y="552" width="14" height="18" fill="#fde68a" fill-opacity="0.75"/><rect x="664" y="552" width="14" height="18" fill="#fde68a" fill-opacity="0.5"/><rect x="634" y="586" width="14" height="18" fill="#fde68a" fill-opacity="0.75"/><rect x="664" y="586" width="14" height="18" fill="#fde68a" fill-opacity="0.5"/><rect x="634" y="620" width="14" height="18" fill="#fde68a" fill-opacity="0.75"/><rect x="664" y="620" width="14" height="18" fill="#fde68a" fill-opacity="0.5"/><rect x="634" y="654" width="14" height="18" fill="#fde68a" fill-opacity="0.75"/><rect x="664" y="654" width="14" height="18" fill="#fde68a" fill-opacity="0.5"/><rect x="720" y="540" width="74" height="150" fill="#5a8fe6"/><rect x="734" y="556" width="14" height="18" fill="#fde68a" fill-opacity="0.75"/><rect x="764" y="556" width="14" height="18" fill="#fde68a" fill-opacity="0.5"/><rect x="734" y="590" width="14" height="18" fill="#fde68a" fill-opacity="0.75"/><rect x="764" y="590" width="14" height="18" fill="#fde68a" fill-opacity="0.5"/><rect x="734" y="624" width="14" height="18" fill="#fde68a" fill-opacity="0.75"/><rect x="764" y="624" width="14" height="18" fill="#fde68a" fill-opacity="0.5"/><rect x="734" y="658" width="14" height="18" fill="#fde68a" fill-opacity="0.75"/><rect x="764" y="658" width="14" height="18" fill="#fde68a" fill-opacity="0.5"/><rect x="820" y="460" width="74" height="230" fill="#3f74d6"/><rect x="834" y="476" width="14" height="18" fill="#fde68a" fill-opacity="0.75"/><rect x="864" y="476" width="14" height="18" fill="#fde68a" fill-opacity="0.5"/><rect x="834" y="510" width="14" height="18" fill="#fde68a" fill-opacity="0.75"/><rect x="864" y="510" width="14" height="18" fill="#fde68a" fill-opacity="0.5"/><rect x="834" y="544" width="14" height="18" fill="#fde68a" fill-opacity="0.75"/><rect x="864" y="544" width="14" height="18" fill="#fde68a" fill-opacity="0.5"/><rect x="834" y="578" width="14" height="18" fill="#fde68a" fill-opacity="0.75"/><rect x="864" y="578" width="14" height="18" fill="#fde68a" fill-opacity="0.5"/><rect x="834" y="612" width="14" height="18" fill="#fde68a" fill-opacity="0.75"/><rect x="864" y="612" width="14" height="18" fill="#fde68a" fill-opacity="0.5"/><rect x="834" y="646" width="14" height="18" fill="#fde68a" fill-opacity="0.75"/><rect x="864" y="646" width="14" height="18" fill="#fde68a" fill-opacity="0.5"/><rect x="90" y="690" width="900" height="8" fill="#1e3a8a"/></g><rect x="177.0" y="436.0" width="56.0" height="33.6" rx="12.0" fill="#2563eb"/><rect x="184.2" y="442.4" width="41.6" height="12.8" rx="3" fill="#cfe3ff"/><rect x="177.0" y="462.9" width="56.0" height="5.6" fill="#1e3a8a"/><circle cx="189.8" cy="473.4" r="6.0" fill="#1e3a8a"/><circle cx="220.2" cy="473.4" r="6.0" fill="#1e3a8a"/><g transform="translate(90 150)"><rect x="0" y="0" width="216" height="60" rx="30" fill="#2563eb"/><text x="108" y="41" font-family="'Noto Sans TC','PingFang TC','Microsoft JhengHei',system-ui,sans-serif" font-size="34" font-weight="800" fill="#fff" text-anchor="middle">這就是你</text></g><circle cx="350" cy="650" r="272.8" fill="url(#h2)"/><g transform="translate(160.8 460.8) scale(3.7840000000000003)">
  <path d="M30 60 Q50 53 70 60 L78 92 Q50 98 22 92 Z" fill="#FFFFFF" stroke="#D7DCE3" stroke-width="1.6"/>
  <path d="M50 56 L41 92 M50 56 L59 92" stroke="#D7DCE3" stroke-width="1.4" fill="none"/>
  <path d="M50 55 L44 67 L50 73 L56 67 Z" fill="#2563eb"/>
  <rect x="45" y="47" width="10" height="11" rx="3" fill="#F0BE92"/>
  <circle cx="33.5" cy="35" r="3.2" fill="#F0BE92"/>
  <circle cx="66.5" cy="35" r="3.2" fill="#F0BE92"/>
  <circle cx="50" cy="34" r="17" fill="#F8D2AC"/>
  <path d="M33 33 Q33 15 50 15 Q67 15 67 33 Q63 25 55 24 Q57 20 51 19 Q52 24 46 24 Q39 25 33 33 Z" fill="#4A372A"/>
  <path d="M39 35 Q43 31 47 35" fill="none" stroke="#2B3440" stroke-width="1.8" stroke-linecap="round"/>
  <path d="M53 35 Q57 31 61 35" fill="none" stroke="#2B3440" stroke-width="1.8" stroke-linecap="round"/>
  <circle cx="40" cy="42" r="2.4" fill="#F4A8A0" fill-opacity="0.7"/>
  <circle cx="60" cy="42" r="2.4" fill="#F4A8A0" fill-opacity="0.7"/>
  <path d="M44 44 Q50 50 56 44" fill="none" stroke="#B06A4F" stroke-width="1.8" stroke-linecap="round"/>
  <g transform="rotate(-6 25 80)">
    <rect x="14" y="72" width="24" height="18" rx="2.5" fill="#B5703B" fill-opacity="0.55" stroke="#B5703B" stroke-opacity="0.85" stroke-width="1.6"/>
    <line x1="14" y1="80" x2="38" y2="80" stroke="#B5703B" stroke-opacity="0.85" stroke-width="1.4"/>
    <rect x="22" y="76" width="8" height="3" rx="1" fill="#B5703B" fill-opacity="0.85"/>
    <path d="M22 72 Q22 67 26 67 L26 67 Q30 67 30 72" fill="none" stroke="#B5703B" stroke-opacity="0.85" stroke-width="1.8"/>
  </g>
  <circle cx="26" cy="66" r="3.8" fill="#F8D2AC"/>
</g><g id="text-overlay"><text x="540" y="900" font-family="'Noto Sans TC','PingFang TC','Microsoft JhengHei',system-ui,sans-serif" font-size="56" font-weight="800" fill="#1f2937" text-anchor="middle">為工作離鄉背井</text><text x="540" y="985" font-family="'Noto Sans TC','PingFang TC','Microsoft JhengHei',system-ui,sans-serif" font-size="56" font-weight="800" fill="#1f2937" text-anchor="middle">一卡皮箱闖天涯</text><text x="540" y="1075" font-family="'Noto Sans TC','PingFang TC','Microsoft JhengHei',system-ui,sans-serif" font-size="40" font-weight="600" fill="#64748b" text-anchor="middle">⋯這是你的日常嗎？</text></g></svg>